<svg xmlns="http://www.w3.org/2000/svg" width="192" height="192" viewBox="0 0 192 192" role="img" aria-label="Money with Basel"><rect width="192" height="192" rx="48" fill="#061111"/><circle cx="52" cy="52" r="54" fill="#099999" opacity=".22"/><circle cx="146" cy="144" r="62" fill="#0fc6bd" opacity=".18"/><path d="M48 122V70c0-13.255 10.745-24 24-24h48c13.255 0 24 10.745 24 24v52c0 13.255-10.745 24-24 24H72c-13.255 0-24-10.745-24-24Z" fill="#0b2424" stroke="#099999" stroke-width="6"/><path d="M71 86h50M71 106h50M71 126h32" stroke="#eefafa" stroke-width="10" stroke-linecap="round"/><path d="M126 126c11.046 0 20-8.954 20-20s-8.954-20-20-20" stroke="#0fc6bd" stroke-width="10" stroke-linecap="round" fill="none"/></svg>
