<svg xmlns="http://www.w3.org/2000/svg" width="512" height="512" viewBox="0 0 512 512" role="img" aria-label="Money with Basel"><defs><linearGradient id="g" x1="0" y1="0" x2="1" y2="1"><stop offset="0" stop-color="#099999"/><stop offset="1" stop-color="#0fc6bd"/></linearGradient></defs><rect width="512" height="512" rx="128" fill="#061111"/><circle cx="132" cy="128" r="148" fill="#099999" opacity=".22"/><circle cx="382" cy="382" r="172" fill="#0fc6bd" opacity=".18"/><path d="M128 326V186c0-35.346 28.654-64 64-64h128c35.346 0 64 28.654 64 64v140c0 35.346-28.654 64-64 64H192c-35.346 0-64-28.654-64-64Z" fill="#0b2424" stroke="url(#g)" stroke-width="16"/><path d="M190 230h132M190 282h132M190 334h86" stroke="#eefafa" stroke-width="28" stroke-linecap="round"/><path d="M334 334c29.823 0 54-24.177 54-54s-24.177-54-54-54" stroke="#0fc6bd" stroke-width="28" stroke-linecap="round" fill="none"/></svg>
